# xmcd
#
# Track frame offsets:
# 182
# 10285
# 31645
# 52550
# 65550
# 78222
# 94125
# 107292
# 116750
# 123835
# 138555
# 174972
# 206527
#
# Disc length: 3139 seconds
#
#
# Revision: 0
# Processed by: cddbd v1.5.1PL2 Copyright (c) Steve Scherf et al.
# Submitted via: FreeRIP 2.944 
#
DISCID=970c410d
DTITLE=Zip Code Revue - Abundance
DYEAR=1994
DGENRE=Country
TTITLE0=Che
TTITLE1=Doctors Are Spreading Disease
TTITLE2=If You Had My Eyes
TTITLE3=Begging Song
TTITLE4=Adams II
TTITLE5=Wired
TTITLE6=Making Believe
TTITLE7=Let's Go Fast
TTITLE8=Tea In Djibouti
TTITLE9=Leaving Has Hurt
TTITLE10=When The Levee Breaks
TTITLE11=Touch Me
TTITLE12=Adams III
EXTD=Amarillo Records
EXTT0=
EXTT1=
EXTT2=
EXTT3=
EXTT4=
EXTT5=
EXTT6=
EXTT7=
EXTT8=
EXTT9=
EXTT10=
EXTT11=
EXTT12=
PLAYORDER=
